<svg width="940" height="945" fill="none" xmlns="http://www.w3.org/2000/svg"><g clip-path="url(#clip0_1_90)"><path d="M759.375 162.108h-580v530.306h580V162.108z" fill="#fff"/><path fill-rule="evenodd" clip-rule="evenodd" d="M939.062 472.5c0 260.61-210.143 471.872-469.374 471.872C210.459 944.372.313 733.11.313 472.5.313 211.892 210.458.628 469.688.628c259.231 0 469.374 211.264 469.374 471.872zM336.68 660.281h-91.093c-19.141 0-28.596 0-34.361-3.707-6.227-4.059-10.032-10.782-10.493-18.203-.346-6.836 4.382-15.185 13.837-31.878l224.919-398.558c9.57-16.925 14.413-25.387 20.524-28.517a23.094 23.094 0 0120.986 0c6.112 3.13 10.955 11.592 20.525 28.517l46.239 81.144.235.414c10.337 18.157 15.579 27.364 17.868 37.028a69.203 69.203 0 010 32.226c-2.307 9.737-7.495 19.011-17.988 37.442L429.733 606.146l-.306.538c-10.405 18.306-15.678 27.584-22.986 34.584a68.683 68.683 0 01-28.02 16.349c-9.57 2.664-20.293 2.664-41.741 2.664zm230.039 0h130.525c19.256 0 28.944 0 34.712-3.82a23.223 23.223 0 0010.494-18.316c.331-6.616-4.294-14.64-13.356-30.362-.313-.536-.625-1.08-.944-1.635l-65.381-112.442-.744-1.266c-9.187-15.619-13.825-23.506-19.781-26.555a22.853 22.853 0 00-20.87 0c-5.996 3.13-10.838 11.36-20.409 27.937l-65.149 112.443-.223.387c-9.537 16.55-14.303 24.82-13.959 31.606.461 7.421 4.266 14.257 10.492 18.316 5.651 3.707 15.337 3.707 34.593 3.707z" fill="#E84142"/></g><defs><clipPath id="clip0_1_90"><path fill="#fff" d="M0 0h939.375v945H0z"/></clipPath></defs></svg>